<?xml version="1.0" standalone="no"?>
<!DOCTYPE svg PUBLIC "-//W3C//DTD SVG 20010904//EN"
 "http://www.w3.org/TR/2001/REC-SVG-20010904/DTD/svg10.dtd">
<svg version="1.0" xmlns="http://www.w3.org/2000/svg"
 width="900.000000pt" height="114.000000pt" viewBox="0 0 900.000000 114.000000"
 preserveAspectRatio="xMidYMid meet">
<metadata>
Created by potrace 1.10, written by Peter Selinger 2001-2011
</metadata>
<g transform="translate(0.000000,114.000000) scale(0.100000,-0.100000)"
fill="#229df9" stroke="none">
<path d="M8405 839 c-16 -11 -50 -28 -75 -40 -210 -96 -170 -90 -685 -99 -247
-5 -1991 -9 -3874 -9 -2546 0 -3427 -4 -3437 -12 -8 -6 -14 -19 -14 -28 0 -9
-13 -32 -30 -51 -16 -19 -29 -43 -30 -54 0 -16 5 -17 43 -12 23 4 1718 9 3767
12 2049 3 3784 8 3855 10 215 9 327 53 448 177 69 71 91 108 70 120 -5 2 -21
-4 -38 -14z"/>
</g>
</svg>
