<?xml version="1.0" standalone="no"?>
<!DOCTYPE svg PUBLIC "-//W3C//DTD SVG 20010904//EN"
 "http://www.w3.org/TR/2001/REC-SVG-20010904/DTD/svg10.dtd">
<svg version="1.0" xmlns="http://www.w3.org/2000/svg"
 width="300.000000pt" height="58.000000pt" viewBox="0 0 300.000000 58.000000"
 preserveAspectRatio="xMidYMid meet">
<metadata>
Created by potrace 1.10, written by Peter Selinger 2001-2011
</metadata>
<g transform="translate(0.000000,58.000000) scale(0.050000,-0.050000)"
fill="#3c1218" stroke="none">
<path d="M296 659 c-73 -38 -127 -105 -109 -134 10 -17 1283 -13 1310 3 30 19
392 17 443 -2 38 -14 3601 -22 3756 -8 16 1 24 21 20 47 -8 58 -355 79 -1276
77 -335 -1 -916 -2 -1290 -3 -594 -1 -1534 18 -2490 51 -262 8 -297 6 -364
-31z"/>
</g>
</svg>
