<?xml version="1.0" standalone="no"?>
<!DOCTYPE svg PUBLIC "-//W3C//DTD SVG 20010904//EN"
 "http://www.w3.org/TR/2001/REC-SVG-20010904/DTD/svg10.dtd">
<svg version="1.0" xmlns="http://www.w3.org/2000/svg"
 width="900.000000pt" height="114.000000pt" viewBox="0 0 900.000000 114.000000"
 preserveAspectRatio="xMidYMid meet">
<metadata>
Created by potrace 1.10, written by Peter Selinger 2001-2011
</metadata>
<g transform="translate(0.000000,114.000000) scale(0.100000,-0.100000)"
fill="#0670f3" stroke="none">
<path d="M265 850 c-21 -34 114 -172 215 -222 113 -55 133 -59 295 -68 83 -5
1635 -10 3450 -12 1815 -1 3507 -5 3760 -8 253 -3 464 -2 469 2 5 4 -4 24 -19
44 -16 21 -34 52 -40 71 l-12 33 -3474 2 c-1911 1 -3656 5 -3879 9 -355 6
-413 9 -473 26 -37 11 -73 25 -79 31 -7 7 -18 12 -25 12 -7 0 -51 20 -98 44
-46 25 -87 41 -90 36z"/>
</g>
</svg>
